<svg xmlns="http://www.w3.org/2000/svg"  viewBox="0 0 64 64" width="128px" height="128px"><linearGradient id="SVGID_1_" x1="32" x2="32" y1="-1.425" y2="64.447" gradientUnits="userSpaceOnUse"><stop offset="0" stop-color="#1a6dff"/><stop offset="1" stop-color="#c822ff"/></linearGradient><path fill="url(#SVGID_1_)" d="M38,58H26c-6.1,0-11-4.9-11-11V17c0-6.1,4.9-11,11-11h12c6.1,0,11,4.9,11,11v2.5c0,1.9-1.6,3.5-3.5,3.5H38 c-0.6,0-1-0.4-1-1v-4H27v28h10v-3h-4c-0.6,0-1-0.4-1-1V32c0-0.6,0.4-1,1-1h12.5c1.9,0,3.5,1.6,3.5,3.5V47C49,53.1,44.1,58,38,58z M26,8c-5,0-9,4-9,9v30c0,5,4,9,9,9h12c5,0,9-4,9-9V34.5c0-0.8-0.7-1.5-1.5-1.5H34v8h4c0.6,0,1,0.4,1,1v5c0,0.6-0.4,1-1,1H26 c-0.6,0-1-0.4-1-1V17c0-0.6,0.4-1,1-1h12c0.6,0,1,0.4,1,1v4h6.5c0.8,0,1.5-0.7,1.5-1.5V17c0-5-4-9-9-9H26z"/><g><linearGradient id="SVGID_2_" x1="32" x2="32" y1="8.787" y2="59.295" gradientUnits="userSpaceOnUse"><stop offset="0" stop-color="#6dc7ff"/><stop offset="1" stop-color="#e6abff"/></linearGradient><path fill="url(#SVGID_2_)" d="M38,53H26c-3.3,0-6-2.7-6-6V17c0-3.3,2.7-6,6-6h12c3.3,0,6,2.7,6,6v1h-2v-1c0-2.2-1.8-4-4-4H26 c-2.2,0-4,1.8-4,4v30c0,2.2,1.8,4,4,4h12c2.2,0,4-1.8,4-4v-9h-5v-2h5c1.1,0,2,0.9,2,2v9C44,50.3,41.3,53,38,53z"/></g></svg>